<svg xmlns="http://www.w3.org/2000/svg" viewBox="0 0 1000 120">
  <!-- Background -->
  <defs>
    <linearGradient id="grad07" x1="0%" y1="0%" x2="100%" y2="0%">
      <stop offset="0%" style="stop-color:#0f766e;stop-opacity:1" />
      <stop offset="50%" style="stop-color:#0d9488;stop-opacity:1" />
      <stop offset="100%" style="stop-color:#0f766e;stop-opacity:1" />
    </linearGradient>
    <pattern id="pattern07" x="0" y="0" width="40" height="40" patternUnits="userSpaceOnUse">
      <circle cx="20" cy="20" r="1" fill="#ffffff" opacity="0.1"/>
    </pattern>
  </defs>
  
  <rect width="1000" height="120" fill="url(#grad07)"/>
  <rect width="1000" height="120" fill="url(#pattern07)"/>
  
  <!-- Left accent bar -->
  <rect x="0" y="0" width="8" height="120" fill="#f97316"/>
  
  <!-- Advanced ETL - Complex pipeline -->
  <g transform="translate(40, 25)">
    <circle cx="10" cy="30" r="8" fill="#f97316" opacity="0.9"/>
    <line x1="18" y1="30" x2="30" y2="15" stroke="#fbbf24" stroke-width="2"/>
    <line x1="18" y1="30" x2="30" y2="30" stroke="#fbbf24" stroke-width="2"/>
    <line x1="18" y1="30" x2="30" y2="45" stroke="#fbbf24" stroke-width="2"/>
    <rect x="30" y="10" width="12" height="10" fill="#fb923c" opacity="0.9" rx="1"/>
    <rect x="30" y="25" width="12" height="10" fill="#fb923c" opacity="0.9" rx="1"/>
    <rect x="30" y="40" width="12" height="10" fill="#fb923c" opacity="0.9" rx="1"/>
    <line x1="42" y1="15" x2="54" y2="30" stroke="#fbbf24" stroke-width="2"/>
    <line x1="42" y1="30" x2="54" y2="30" stroke="#fbbf24" stroke-width="2"/>
    <line x1="42" y1="45" x2="54" y2="30" stroke="#fbbf24" stroke-width="2"/>
    <circle cx="62" cy="30" r="8" fill="#f97316" opacity="0.9"/>
  </g>
  
  <!-- Module number -->
  <text x="120" y="45" font-family="Arial, sans-serif" font-size="20" font-weight="bold" fill="#ffffff" opacity="0.9">
    MODULE 07
  </text>
  
  <!-- Module title -->
  <text x="120" y="75" font-family="Arial, sans-serif" font-size="32" font-weight="bold" fill="#ffffff">
    Advanced ETL
  </text>
  
  <!-- Tamil motto on right -->
  <text x="920" y="45" font-family="Arial, sans-serif" font-size="16" fill="#f97316" text-anchor="end" font-weight="bold">
    கற்க கசடற
  </text>
  <text x="920" y="68" font-family="Arial, sans-serif" font-size="12" fill="#ffffff" text-anchor="end" opacity="0.8">
    Learn Flawlessly
  </text>
  
  <!-- Decorative elements -->
  <g opacity="0.2" fill="#ffffff">
    <text x="630" y="95" font-family="monospace" font-size="14">INCREMENTAL • PERFORMANCE</text>
    <text x="780" y="30" font-family="monospace" font-size="14">CDC</text>
  </g>
  
  <!-- Bottom accent line -->
  <rect x="0" y="112" width="1000" height="8" fill="#f97316" opacity="0.5"/>
</svg>
