<svg xmlns="http://www.w3.org/2000/svg" viewBox="0 0 1000 120">
  <!-- Background -->
  <defs>
    <linearGradient id="grad09" x1="0%" y1="0%" x2="100%" y2="0%">
      <stop offset="0%" style="stop-color:#991b1b;stop-opacity:1" />
      <stop offset="50%" style="stop-color:#b91c1c;stop-opacity:1" />
      <stop offset="100%" style="stop-color:#991b1b;stop-opacity:1" />
    </linearGradient>
    <pattern id="pattern09" x="0" y="0" width="40" height="40" patternUnits="userSpaceOnUse">
      <circle cx="20" cy="20" r="1" fill="#ffffff" opacity="0.1"/>
    </pattern>
  </defs>
  
  <rect width="1000" height="120" fill="url(#grad09)"/>
  <rect width="1000" height="120" fill="url(#pattern09)"/>
  
  <!-- Left accent bar -->
  <rect x="0" y="0" width="8" height="120" fill="#f97316"/>
  
  <!-- Trophy/Achievement icon -->
  <g transform="translate(40, 20)">
    <rect x="20" y="45" width="20" height="8" fill="#fbbf24" opacity="0.9"/>
    <rect x="25" y="53" width="10" height="12" fill="#fbbf24" opacity="0.9"/>
    <rect x="20" y="65" width="20" height="4" fill="#fbbf24" opacity="0.9"/>
    <path d="M 15 45 Q 10 35 15 25 L 20 25 L 20 45 Z" fill="#fb923c" opacity="0.9"/>
    <path d="M 45 45 Q 50 35 45 25 L 40 25 L 40 45 Z" fill="#fb923c" opacity="0.9"/>
    <ellipse cx="30" cy="25" rx="15" ry="13" fill="#f97316" opacity="0.9"/>
    <polygon points="30,8 33,16 41,17 36,23 37,31 30,27 23,31 24,23 19,17 27,16" fill="#fbbf24" opacity="0.9"/>
  </g>
  
  <!-- Module number -->
  <text x="120" y="45" font-family="Arial, sans-serif" font-size="20" font-weight="bold" fill="#ffffff" opacity="0.9">
    MODULE 09
  </text>
  
  <!-- Module title -->
  <text x="120" y="75" font-family="Arial, sans-serif" font-size="32" font-weight="bold" fill="#ffffff">
    SQL Capstone Project
  </text>
  
  <!-- Tamil motto on right -->
  <text x="920" y="45" font-family="Arial, sans-serif" font-size="16" fill="#f97316" text-anchor="end" font-weight="bold">
    கற்க கசடற
  </text>
  <text x="920" y="68" font-family="Arial, sans-serif" font-size="12" fill="#ffffff" text-anchor="end" opacity="0.8">
    Learn Flawlessly
  </text>
  
  <!-- Decorative elements -->
  <g opacity="0.2" fill="#ffffff">
    <text x="640" y="95" font-family="monospace" font-size="14">END-TO-END PROJECT</text>
    <text x="780" y="30" font-family="monospace" font-size="14">COMPLETE</text>
  </g>
  
  <!-- Bottom accent line -->
  <rect x="0" y="112" width="1000" height="8" fill="#f97316" opacity="0.5"/>
</svg>
